<svg width="599" height="539" viewBox="0 0 599 539" fill="none" xmlns="http://www.w3.org/2000/svg">
<path d="M400.136 209.845C413.493 212.381 426.976 227.17 434.542 237.826C438.031 243.216 440.689 248.978 443.261 254.845C443.586 255.561 443.911 256.277 444.245 257.014C451.761 274.748 452.54 294.391 454.192 313.338C454.451 316.267 454.724 319.194 454.997 322.121C455.263 324.991 455.522 327.861 455.779 330.731C455.958 332.72 456.141 334.709 456.324 336.697C458.458 361.423 458.458 361.423 452.734 372.384C450.882 376.396 449.804 380.302 448.824 384.595C448.655 385.325 448.487 386.055 448.314 386.807C447.494 390.566 447.014 394.13 446.949 397.97C445.909 402.929 444.222 404.333 440.14 407.15C434.643 410.252 428.876 412.704 423.028 415.065C421.265 415.792 419.529 416.584 417.796 417.38C413.183 419.227 408.525 420.383 403.699 421.533C402.776 421.758 401.854 421.983 400.904 422.214C398.649 422.763 396.393 423.307 394.136 423.845C409.912 426.476 409.912 426.476 424.898 423.283C426.886 421.395 426.886 421.395 428.578 419.423C430.136 417.845 430.136 417.845 433.824 417.095C437.922 418.023 439.498 419.647 442.136 422.845C442.466 422.185 442.796 421.525 443.136 420.845C443.796 420.845 444.456 420.845 445.136 420.845C445.234 421.67 445.332 422.495 445.433 423.345C449.385 453.871 461.696 483.978 486.398 503.646C487.754 504.666 489.123 505.672 490.507 506.654C492.136 507.845 492.136 507.845 494.136 509.845C488.298 509.221 482.772 508.109 477.074 506.72C448.813 500.13 420.23 495.779 391.356 493.055C389.105 492.842 386.855 492.626 384.604 492.408C380.137 491.979 375.668 491.565 371.199 491.158C369.238 490.978 369.238 490.978 367.239 490.795C345.179 488.88 323.139 488.642 301.011 488.658C300.258 488.658 299.504 488.658 298.728 488.658C276.133 488.663 253.666 488.933 231.136 490.845C229.754 490.954 228.372 491.063 226.99 491.17C209.151 492.562 191.455 494.547 173.767 497.286C170.563 497.78 167.356 498.259 164.149 498.732C148.504 501.046 133.017 503.72 117.602 507.292C113.462 508.221 109.3 509.035 105.136 509.845C108.259 506.618 111.512 503.622 114.886 500.658C140.1 477.827 151.898 445.265 154.136 411.845C161.255 417.652 167.61 424.208 174.074 430.72C175.246 431.898 176.419 433.075 177.591 434.251C180.442 437.113 183.29 439.978 186.136 442.845C184.594 447.246 181.122 449.441 177.511 452.095C176.9 452.554 176.289 453.013 175.66 453.486C174.157 454.613 172.647 455.73 171.136 456.845C172.247 456.729 173.358 456.613 174.503 456.494C215.137 452.278 215.137 452.278 235.151 451.987C237.347 451.913 237.347 451.913 240.136 450.845C242.962 450.733 245.764 450.678 248.591 450.668C249.457 450.662 250.323 450.655 251.216 450.648C254.105 450.628 256.993 450.617 259.882 450.607C260.884 450.603 261.885 450.599 262.917 450.595C268.265 450.574 273.613 450.559 278.961 450.55C283.296 450.541 287.631 450.521 291.966 450.489C314.715 450.322 337.291 450.548 359.957 452.666C360.832 452.747 361.707 452.828 362.609 452.912C382.869 454.848 403.196 457.747 423.136 461.845C423.861 452.486 424.279 443.239 424.136 433.845C424.02 434.416 423.904 434.986 423.785 435.573C423.26 438.144 422.729 440.713 422.199 443.283C422.016 444.181 421.834 445.078 421.646 446.003C421.469 446.857 421.292 447.711 421.109 448.591C420.865 449.777 420.865 449.777 420.617 450.988C420.136 452.845 420.136 452.845 419.136 453.845C416.778 453.581 414.474 453.238 412.136 452.845C411.274 452.704 410.413 452.562 409.525 452.416C407.549 452.091 405.574 451.764 403.598 451.436C389.906 449.183 376.243 447.061 362.355 446.646C361.372 446.615 360.39 446.583 359.377 446.551C357.483 446.499 355.589 446.464 353.694 446.45C347.152 446.287 341.294 445.103 336.579 440.239C334.426 438.159 332.503 438.404 329.574 438.283C324.345 438.054 324.345 438.054 322.136 435.845C321.45 434.058 321.45 434.058 320.847 431.931C320.518 430.79 320.518 430.79 320.183 429.626C319.961 428.832 319.74 428.038 319.511 427.22C319.282 426.418 319.052 425.617 318.816 424.791C318.25 422.81 317.692 420.828 317.136 418.845C316.359 419.653 315.582 420.462 314.781 421.294C312.333 423.655 311.403 424.482 308.136 424.845C308.567 425.412 308.997 425.98 309.441 426.564C311.098 428.794 312.696 431.049 314.261 433.345C314.779 434.098 315.298 434.851 315.832 435.626C317.083 437.755 317.784 439.409 318.136 441.845C315.713 444.269 309.638 443.454 306.286 443.516C299.218 443.352 295.443 441.155 290.351 436.181C289.62 435.41 288.889 434.639 288.136 433.845C286.923 432.805 285.697 431.78 284.449 430.783C283.686 430.143 282.922 429.504 282.136 428.845C282.743 425.239 284.225 423.162 286.511 420.345C287.117 419.592 287.723 418.84 288.347 418.064C288.938 417.332 289.528 416.6 290.136 415.845C290.665 415.092 291.193 414.34 291.738 413.564C292.199 412.997 292.661 412.43 293.136 411.845C293.796 411.845 294.456 411.845 295.136 411.845C296.863 413.595 296.863 413.595 298.761 415.845C299.393 416.588 300.025 417.33 300.675 418.095C301.157 418.673 301.64 419.25 302.136 419.845C300.398 417.523 298.65 415.21 296.886 412.908C295.136 409.845 295.136 409.845 295.222 407.595C296.486 403.793 298.625 400.97 301.011 397.783C301.459 397.171 301.906 396.559 302.367 395.929C304.18 393.456 305.962 391.042 307.996 388.744C309.607 386.061 309.14 384.563 308.511 381.533C308.198 379.963 308.198 379.963 307.878 378.361C307.633 377.201 307.389 376.041 307.136 374.845C306.885 373.507 306.638 372.169 306.394 370.83C305.233 363.484 305.233 363.484 302.136 356.845C299.573 356.116 299.573 356.116 297.136 355.845C297.297 356.585 297.458 357.325 297.625 358.087C298.346 363.387 298.321 368.627 298.324 373.97C298.336 375.035 298.348 376.1 298.361 377.197C298.38 387.905 297.322 397.804 292.511 407.47C292.159 408.195 291.806 408.92 291.443 409.667C288.394 415.729 284.765 420.872 280.136 425.845C279.472 426.611 278.808 427.377 278.125 428.166C272.041 434.8 265.05 438.782 257.136 442.845C256.331 443.268 255.525 443.691 254.695 444.126C238.488 452.006 220.173 451.861 203.324 446.38C191.435 442.175 182.251 435.328 173.136 426.845C172.102 425.894 172.102 425.894 171.046 424.923C158.429 411.991 153.969 393.11 153.886 375.72C153.866 374.655 153.845 373.591 153.824 372.494C153.771 361.648 156.097 351.963 160.824 342.22C161.17 341.497 161.517 340.773 161.874 340.027C164.886 333.956 168.514 328.816 173.136 323.845C173.665 323.238 174.193 322.631 174.738 322.005C179.987 316.303 186.566 311.898 193.136 307.845C193.796 307.845 194.456 307.845 195.136 307.845C195.023 307.293 194.911 306.74 194.795 306.17C193.621 300.413 192.454 294.654 191.291 288.894C190.856 286.745 190.42 284.597 189.981 282.448C189.351 279.359 188.728 276.268 188.105 273.177C187.908 272.219 187.711 271.26 187.508 270.273C187.328 269.372 187.148 268.472 186.962 267.544C186.803 266.755 186.643 265.967 186.478 265.155C186.113 262.688 186.078 260.336 186.136 257.845C185.177 257.861 184.218 257.877 183.23 257.893C179.678 257.947 176.127 257.982 172.574 258.01C171.036 258.025 169.497 258.046 167.959 258.072C165.75 258.108 163.541 258.125 161.332 258.138C160.297 258.161 160.297 258.161 159.242 258.185C157.301 258.186 157.301 258.186 154.136 257.845C151.989 254.624 151.575 253.586 152.136 249.845C154.629 247.166 156.153 246.843 159.832 246.441C161.308 246.415 162.785 246.406 164.261 246.412C165.437 246.404 165.437 246.404 166.637 246.396C168.291 246.389 169.945 246.391 171.599 246.399C174.128 246.408 176.655 246.379 179.183 246.347C180.792 246.346 182.402 246.346 184.011 246.349C184.765 246.338 185.52 246.327 186.297 246.315C189.631 246.359 191.757 246.589 194.549 248.474C196.524 251.424 197.058 253.788 197.664 257.287C197.896 258.581 198.129 259.874 198.368 261.208C198.604 262.608 198.839 264.008 199.074 265.408C199.326 266.841 199.579 268.273 199.834 269.706C200.355 272.638 200.867 275.573 201.375 278.508C202.091 282.621 202.855 286.724 203.632 290.826C203.981 292.668 203.981 292.668 204.338 294.548C204.779 296.871 205.221 299.193 205.663 301.515C205.955 303.079 205.955 303.079 206.253 304.673C206.425 305.58 206.596 306.486 206.772 307.42C207.136 309.845 207.136 309.845 207.136 313.845C206.265 314.295 205.393 314.745 204.496 315.208C186.923 324.572 173.291 338.328 167.238 357.724C162.548 375.257 165.046 391.614 173.648 407.486C183.176 422.59 196.787 432.557 214.136 436.658C230.404 439.703 246.588 436.297 260.57 427.275C272.749 417.826 283.733 404.389 285.964 388.583C286.194 384.921 286.337 381.264 286.386 377.595C286.396 376.94 286.406 376.286 286.416 375.611C286.367 368.472 285.173 362.103 284.136 354.845C263.676 354.845 243.216 354.845 222.136 354.845C220.51 350.78 219.642 347.711 218.953 343.47C218.747 342.237 218.541 341.003 218.33 339.732C218.121 338.449 217.913 337.167 217.699 335.845C216.331 327.468 214.807 319.203 212.839 310.945C211.724 306.029 210.926 301.072 210.136 296.095C208.765 287.519 208.765 287.519 207.214 278.974C205.772 271.498 204.888 264.409 205.097 256.759C205.134 254.04 204.953 251.48 204.636 248.783C203.58 238.91 202.739 230.125 209.136 221.845C215.333 216.517 220.897 214.395 229.031 214.513C238.088 215.482 245.043 219.761 251.199 226.291C253.272 229.024 254.587 231.731 256.011 234.845C257.291 237.678 257.291 237.678 259.136 239.845C262.007 240.557 264.514 240.534 267.464 240.49C270.909 240.948 271.714 242.025 273.824 244.72C274.644 245.803 274.644 245.803 275.48 246.908C280.421 252.688 290.066 252.929 297.136 253.845C301.661 254.173 306.163 254.26 310.699 254.283C311.84 254.316 312.982 254.348 314.158 254.382C321.398 254.428 326.579 253.298 333.007 249.924C335.136 248.845 335.136 248.845 337.136 248.845C337.136 247.855 337.136 246.865 337.136 245.845C339.197 244.315 339.197 244.315 342.07 242.701C343.112 242.106 344.154 241.511 345.228 240.898C346.332 240.282 347.436 239.667 348.574 239.033C350.72 237.821 352.864 236.606 355.007 235.388C356.049 234.801 357.09 234.214 358.163 233.608C361.643 231.545 364.899 229.252 368.121 226.807C370.794 225.531 372.353 226.034 375.136 226.845C375.796 229.815 376.456 232.785 377.136 235.845C382.293 230.244 387.227 224.61 391.726 218.462C392.191 217.929 392.657 217.395 393.136 216.845C393.796 216.845 394.456 216.845 395.136 216.845C395.404 216.206 395.672 215.566 395.949 214.908C397.136 212.845 397.136 212.845 400.136 211.845C400.136 211.185 400.136 210.525 400.136 209.845Z" fill="#16785F"/>
<path d="M290.175 321.066C293.95 321.817 297.617 323.001 301.291 324.114C302.151 324.371 303.01 324.627 303.87 324.883C305.96 325.507 308.049 326.136 310.136 326.767C310.136 326.945 310.136 327.122 310.136 327.305C307.435 327.087 304.915 326.746 302.297 326.062C298.242 325.017 294.111 324.408 289.968 323.783C289.427 323.697 288.887 323.612 288.33 323.524C287.841 323.45 287.351 323.376 286.847 323.299C286.474 323.202 286.102 323.106 285.718 323.006C285.535 322.651 285.352 322.296 285.163 321.931C287.076 320.696 287.955 320.77 290.175 321.066Z" fill="#1F7765"/>
<path d="M42.0929 321.931C42.0929 322.286 42.0929 322.64 42.0929 323.006C42.4592 323.183 42.8255 323.36 43.2029 323.543C40.4091 324.082 37.6147 324.618 34.8196 325.15C33.8694 325.332 32.9193 325.514 31.9695 325.698C30.602 325.961 29.234 326.222 27.8657 326.482C27.443 326.564 27.0204 326.646 26.5849 326.731C24.5128 327.121 22.5626 327.404 20.4497 327.305C22.3547 326.075 24.2405 325.55 26.4155 324.954C26.8312 324.838 27.247 324.723 27.6754 324.604C28.5382 324.366 29.4015 324.129 30.2652 323.894C31.4932 323.558 32.7187 323.215 33.9442 322.871C34.6833 322.669 35.4225 322.468 36.1619 322.267C36.8236 322.085 37.4853 321.904 38.1671 321.717C39.7722 321.413 40.5886 321.377 42.0929 321.931Z" fill="#197B5D"/>
<path d="M14.9002 314.408C14.9002 316.02 14.9002 316.02 13.5648 317.47C12.9967 318.01 12.4242 318.545 11.8479 319.076C11.5568 319.351 11.2656 319.626 10.9657 319.909C10.246 320.586 9.52131 321.259 8.79569 321.931C10.2608 321.754 11.7259 321.576 13.2353 321.394C12.2666 323.27 9.96176 323.525 7.99794 324.181C7.55978 324.335 7.12161 324.488 6.67017 324.646C6.2506 324.789 5.83104 324.931 5.39876 325.078C5.01286 325.209 4.62696 325.34 4.22937 325.475C3.24614 325.693 3.24614 325.693 2.13623 325.155C2.47246 324.901 2.80868 324.647 3.15509 324.385C7.24694 321.258 11.2459 318.015 14.9002 314.408Z" fill="#154276"/>
<path d="M35.4335 323.543C34.8841 323.898 34.3347 324.252 33.7686 324.618C33.7686 324.795 33.7686 324.972 33.7686 325.155C32.0701 325.518 30.3702 325.874 28.67 326.23C27.9505 326.384 27.9505 326.384 27.2165 326.541C26.7497 326.638 26.2829 326.734 25.802 326.834C25.3748 326.924 24.9476 326.015 24.5074 327.107C23.1354 327.318 21.8367 327.338 20.4497 327.305C21.8693 326.388 22.7005 325.992 24.2824 325.556C24.9015 325.383 24.9015 325.383 25.5332 325.207C25.9617 325.09 26.3902 324.973 26.8317 324.853C27.6815 324.617 28.5313 324.381 29.381 324.145C29.7569 324.043 30.1329 323.94 30.5202 323.834C33.5511 322.977 33.5511 322.977 35.4335 323.543Z" fill="#3B8D74"/>
<path d="M305.627 325.458C306.062 325.584 306.497 325.709 306.945 325.839C308.01 326.147 309.073 326.457 310.136 326.768C310.136 326.945 310.136 327.122 310.136 327.305C306.65 327.024 303.43 326.39 300.047 325.531C298.23 325.095 296.456 324.823 294.598 324.618C294.598 324.441 294.598 324.264 294.598 324.081C298.451 323.093 301.934 324.376 305.627 325.458Z" fill="#428E7C"/>
</svg>
